G04 #@! TF.GenerationSoftware,KiCad,Pcbnew,6.0.2+dfsg-1*
G04 #@! TF.CreationDate,2023-07-29T12:32:45+02:00*
G04 #@! TF.ProjectId,MagicQuartz-Mega,4d616769-6351-4756-9172-747a2d4d6567,rev?*
G04 #@! TF.SameCoordinates,Original*
G04 #@! TF.FileFunction,Legend,Bot*
G04 #@! TF.FilePolarity,Positive*
%FSLAX46Y46*%
G04 Gerber Fmt 4.6, Leading zero omitted, Abs format (unit mm)*
G04 Created by KiCad (PCBNEW 6.0.2+dfsg-1) date 2023-07-29 12:32:45*
%MOMM*%
%LPD*%
G01*
G04 APERTURE LIST*
G04 Aperture macros list*
%AMRoundRect*
0 Rectangle with rounded corners*
0 $1 Rounding radius*
0 $2 $3 $4 $5 $6 $7 $8 $9 X,Y pos of 4 corners*
0 Add a 4 corners polygon primitive as box body*
4,1,4,$2,$3,$4,$5,$6,$7,$8,$9,$2,$3,0*
0 Add four circle primitives for the rounded corners*
1,1,$1+$1,$2,$3*
1,1,$1+$1,$4,$5*
1,1,$1+$1,$6,$7*
1,1,$1+$1,$8,$9*
0 Add four rect primitives between the rounded corners*
20,1,$1+$1,$2,$3,$4,$5,0*
20,1,$1+$1,$4,$5,$6,$7,0*
20,1,$1+$1,$6,$7,$8,$9,0*
20,1,$1+$1,$8,$9,$2,$3,0*%
G04 Aperture macros list end*
%ADD10C,2.453200*%
%ADD11RoundRect,0.101600X-1.125000X1.125000X-1.125000X-1.125000X1.125000X-1.125000X1.125000X1.125000X0*%
%ADD12C,2.700000*%
%ADD13RoundRect,0.101600X-1.125000X-1.125000X1.125000X-1.125000X1.125000X1.125000X-1.125000X1.125000X0*%
%ADD14C,2.800000*%
%ADD15O,2.800000X2.800000*%
%ADD16R,3.000000X3.000000*%
%ADD17C,3.000000*%
%ADD18RoundRect,0.101600X1.125000X1.125000X-1.125000X1.125000X-1.125000X-1.125000X1.125000X-1.125000X0*%
%ADD19RoundRect,0.101600X1.125000X-1.125000X1.125000X1.125000X-1.125000X1.125000X-1.125000X-1.125000X0*%
%ADD20C,3.200000*%
G04 APERTURE END LIST*
%LPC*%
D10*
X81280000Y-109220000D03*
X71120000Y-109220000D03*
D11*
X124460000Y-109220000D03*
D10*
X121920000Y-109220000D03*
X119380000Y-109220000D03*
X116840000Y-109220000D03*
X114300000Y-109220000D03*
X111760000Y-109220000D03*
X109220000Y-109220000D03*
X106680000Y-109220000D03*
X104140000Y-109220000D03*
X101600000Y-109220000D03*
X99060000Y-109220000D03*
X96520000Y-109220000D03*
X93980000Y-109220000D03*
X91440000Y-109220000D03*
X88900000Y-109220000D03*
X86360000Y-109220000D03*
D12*
X67260000Y-118090000D03*
X67260000Y-111080000D03*
D10*
X64770000Y-116840000D03*
X64770000Y-112340000D03*
D12*
X67260000Y-141560000D03*
X67260000Y-148570000D03*
D10*
X64770000Y-147320000D03*
X64770000Y-142820000D03*
X86360000Y-132715000D03*
X76200000Y-132715000D03*
X95250000Y-139065000D03*
X90250000Y-139065000D03*
X95250000Y-128270000D03*
X90250000Y-128270000D03*
X86360000Y-128270000D03*
X81360000Y-128270000D03*
X95250000Y-132715000D03*
X90250000Y-132715000D03*
X119380000Y-127000000D03*
X124380000Y-127000000D03*
X106045000Y-138430000D03*
X116205000Y-138430000D03*
X116205000Y-134620000D03*
X106045000Y-134620000D03*
D13*
X136525000Y-119380000D03*
D10*
X136525000Y-121920000D03*
X136525000Y-124460000D03*
D14*
X130810000Y-130175000D03*
D15*
X130810000Y-150495000D03*
D10*
X106045000Y-130810000D03*
X116205000Y-130810000D03*
D12*
X67260000Y-138410000D03*
X67260000Y-131400000D03*
D10*
X64770000Y-137160000D03*
X64770000Y-132660000D03*
D16*
X139065000Y-146685000D03*
D17*
X139065000Y-141605000D03*
X139065000Y-136525000D03*
X139065000Y-131445000D03*
D18*
X140970000Y-124460000D03*
D10*
X140970000Y-121920000D03*
X140970000Y-119380000D03*
X140970000Y-116840000D03*
X78740000Y-119380000D03*
X81280000Y-119380000D03*
D19*
X117475000Y-150495000D03*
D10*
X120015000Y-150495000D03*
X122555000Y-150495000D03*
X106045000Y-146050000D03*
X116205000Y-146050000D03*
X106045000Y-142240000D03*
X116205000Y-142240000D03*
X116840000Y-115062000D03*
X119380000Y-115062000D03*
X111760000Y-150622000D03*
X109220000Y-150622000D03*
X106680000Y-150622000D03*
X104140000Y-150622000D03*
X101600000Y-150622000D03*
X99060000Y-150622000D03*
X96520000Y-150622000D03*
X93980000Y-150622000D03*
X109220000Y-115062000D03*
X106680000Y-115062000D03*
X104140000Y-115062000D03*
X101600000Y-115062000D03*
X99060000Y-115062000D03*
X96520000Y-115062000D03*
X93980000Y-115062000D03*
X91440000Y-115062000D03*
X88900000Y-115062000D03*
X86360000Y-115062000D03*
X83820000Y-115062000D03*
X81280000Y-115062000D03*
X78740000Y-115062000D03*
X76200000Y-115062000D03*
X73660000Y-115062000D03*
X91440000Y-150622000D03*
X88900000Y-150622000D03*
X86360000Y-150622000D03*
X83820000Y-150622000D03*
X81280000Y-150622000D03*
X78740000Y-150622000D03*
X76200000Y-150622000D03*
X73660000Y-150622000D03*
X121920000Y-115062000D03*
X114300000Y-115062000D03*
X111760000Y-115062000D03*
X124460000Y-115062000D03*
D12*
X67260000Y-121240000D03*
X67260000Y-128250000D03*
D10*
X64770000Y-127000000D03*
X64770000Y-122500000D03*
X135255000Y-111125000D03*
X132715000Y-108585000D03*
X130175000Y-111125000D03*
D19*
X106680000Y-127000000D03*
D10*
X109220000Y-127000000D03*
X111760000Y-127000000D03*
X114300000Y-127000000D03*
X114300000Y-119380000D03*
X111760000Y-119380000D03*
X109220000Y-119380000D03*
X106680000Y-119380000D03*
X86360000Y-139065000D03*
X76200000Y-139065000D03*
X86360000Y-143510000D03*
X81360000Y-143510000D03*
X95250000Y-143510000D03*
X90250000Y-143510000D03*
D20*
X64770000Y-152400000D03*
X64770000Y-107315000D03*
X142240000Y-152400000D03*
X142240000Y-107315000D03*
M02*
