M48
; DRILL file {KiCad 6.0.7+dfsg-1build1} date Mo 09 Jan 2023 21:05:36 CET
; FORMAT={-:-/ absolute / metric / decimal}
; #@! TF.CreationDate,2023-01-09T21:05:36+01:00
; #@! TF.GenerationSoftware,Kicad,Pcbnew,6.0.7+dfsg-1build1
; #@! TF.FileFunction,Plated,1,2,PTH
FMAT,2
METRIC
; #@! TA.AperFunction,Plated,PTH,ComponentDrill
T1C1.000
; #@! TA.AperFunction,Plated,PTH,ComponentDrill
T2C1.300
; #@! TA.AperFunction,Plated,PTH,ComponentDrill
T3C1.520
%
G90
G05
T1
X64.77Y-112.34
X64.77Y-116.84
X64.77Y-122.5
X64.77Y-127.0
X64.77Y-132.66
X64.77Y-137.16
X64.77Y-142.82
X64.77Y-147.32
X71.12Y-109.22
X73.66Y-115.062
X73.66Y-150.622
X76.2Y-115.062
X76.2Y-132.715
X76.2Y-139.065
X76.2Y-150.622
X78.74Y-115.062
X78.74Y-119.38
X78.74Y-150.622
X81.28Y-109.22
X81.28Y-115.062
X81.28Y-119.38
X81.28Y-150.622
X81.36Y-128.27
X81.36Y-143.51
X83.82Y-115.062
X83.82Y-150.622
X86.36Y-109.22
X86.36Y-115.062
X86.36Y-128.27
X86.36Y-132.715
X86.36Y-139.065
X86.36Y-143.51
X86.36Y-150.622
X88.9Y-109.22
X88.9Y-115.062
X88.9Y-150.622
X90.25Y-128.27
X90.25Y-132.715
X90.25Y-139.065
X90.25Y-143.51
X91.44Y-109.22
X91.44Y-115.062
X91.44Y-150.622
X93.98Y-109.22
X93.98Y-115.062
X93.98Y-150.622
X95.25Y-128.27
X95.25Y-132.715
X95.25Y-139.065
X95.25Y-143.51
X96.52Y-109.22
X96.52Y-115.062
X96.52Y-150.622
X99.06Y-109.22
X99.06Y-115.062
X99.06Y-150.622
X101.6Y-109.22
X101.6Y-115.062
X101.6Y-150.622
X104.14Y-109.22
X104.14Y-115.062
X104.14Y-150.622
X106.045Y-130.81
X106.045Y-134.62
X106.045Y-138.43
X106.045Y-142.24
X106.045Y-146.05
X106.68Y-109.22
X106.68Y-115.062
X106.68Y-119.38
X106.68Y-127.0
X106.68Y-150.622
X109.22Y-109.22
X109.22Y-115.062
X109.22Y-119.38
X109.22Y-127.0
X109.22Y-150.622
X111.76Y-109.22
X111.76Y-115.062
X111.76Y-119.38
X111.76Y-127.0
X111.76Y-150.622
X114.3Y-109.22
X114.3Y-115.062
X114.3Y-119.38
X114.3Y-127.0
X116.205Y-130.81
X116.205Y-134.62
X116.205Y-138.43
X116.205Y-142.24
X116.205Y-146.05
X116.84Y-109.22
X116.84Y-115.062
X117.475Y-150.495
X119.38Y-109.22
X119.38Y-115.062
X119.38Y-127.0
X120.015Y-150.495
X121.92Y-109.22
X121.92Y-115.062
X122.555Y-150.495
X124.38Y-127.0
X124.46Y-109.22
X124.46Y-115.062
X130.175Y-111.125
X130.81Y-130.175
X130.81Y-150.495
X132.715Y-108.585
X135.255Y-111.125
X136.525Y-119.38
X136.525Y-121.92
X136.525Y-124.46
X140.97Y-116.84
X140.97Y-119.38
X140.97Y-121.92
X140.97Y-124.46
T2
X67.26Y-111.08
X67.26Y-118.09
X67.26Y-121.24
X67.26Y-128.25
X67.26Y-131.4
X67.26Y-138.41
X67.26Y-141.56
X67.26Y-148.57
T3
X139.065Y-131.445
X139.065Y-136.525
X139.065Y-141.605
X139.065Y-146.685
T0
M30
