M48
; DRILL file {KiCad 6.0.2+dfsg-1} date Sat 29 Jul 2023 12:33:07 PM CEST
; FORMAT={-:-/ absolute / inch / decimal}
; #@! TF.CreationDate,2023-07-29T12:33:07+02:00
; #@! TF.GenerationSoftware,Kicad,Pcbnew,6.0.2+dfsg-1
; #@! TF.FileFunction,Plated,1,2,PTH
FMAT,2
INCH
; #@! TA.AperFunction,Plated,PTH,ComponentDrill
T1C0.0394
; #@! TA.AperFunction,Plated,PTH,ComponentDrill
T2C0.0512
; #@! TA.AperFunction,Plated,PTH,ComponentDrill
T3C0.0598
%
G90
G05
T1
X2.55Y-4.4228
X2.55Y-4.6
X2.55Y-4.8228
X2.55Y-5.0
X2.55Y-5.2228
X2.55Y-5.4
X2.55Y-5.6228
X2.55Y-5.8
X2.8Y-4.3
X2.9Y-4.53
X2.9Y-5.93
X3.0Y-4.53
X3.0Y-5.225
X3.0Y-5.475
X3.0Y-5.93
X3.1Y-4.53
X3.1Y-4.7
X3.1Y-5.93
X3.2Y-4.3
X3.2Y-4.53
X3.2Y-4.7
X3.2Y-5.93
X3.2031Y-5.05
X3.2031Y-5.65
X3.3Y-4.53
X3.3Y-5.93
X3.4Y-4.3
X3.4Y-4.53
X3.4Y-5.05
X3.4Y-5.225
X3.4Y-5.475
X3.4Y-5.65
X3.4Y-5.93
X3.5Y-4.3
X3.5Y-4.53
X3.5Y-5.93
X3.5531Y-5.05
X3.5531Y-5.225
X3.5531Y-5.475
X3.5531Y-5.65
X3.6Y-4.3
X3.6Y-4.53
X3.6Y-5.93
X3.7Y-4.3
X3.7Y-4.53
X3.7Y-5.93
X3.75Y-5.05
X3.75Y-5.225
X3.75Y-5.475
X3.75Y-5.65
X3.8Y-4.3
X3.8Y-4.53
X3.8Y-5.93
X3.9Y-4.3
X3.9Y-4.53
X3.9Y-5.93
X4.0Y-4.3
X4.0Y-4.53
X4.0Y-5.93
X4.1Y-4.3
X4.1Y-4.53
X4.1Y-5.93
X4.175Y-5.15
X4.175Y-5.3
X4.175Y-5.45
X4.175Y-5.6
X4.175Y-5.75
X4.2Y-4.3
X4.2Y-4.53
X4.2Y-4.7
X4.2Y-5.0
X4.2Y-5.93
X4.3Y-4.3
X4.3Y-4.53
X4.3Y-4.7
X4.3Y-5.0
X4.3Y-5.93
X4.4Y-4.3
X4.4Y-4.53
X4.4Y-4.7
X4.4Y-5.0
X4.4Y-5.93
X4.5Y-4.3
X4.5Y-4.53
X4.5Y-4.7
X4.5Y-5.0
X4.575Y-5.15
X4.575Y-5.3
X4.575Y-5.45
X4.575Y-5.6
X4.575Y-5.75
X4.6Y-4.3
X4.6Y-4.53
X4.625Y-5.925
X4.7Y-4.3
X4.7Y-4.53
X4.7Y-5.0
X4.725Y-5.925
X4.8Y-4.3
X4.8Y-4.53
X4.825Y-5.925
X4.8969Y-5.0
X4.9Y-4.3
X4.9Y-4.53
X5.125Y-4.375
X5.15Y-5.125
X5.15Y-5.925
X5.225Y-4.275
X5.325Y-4.375
X5.375Y-4.7
X5.375Y-4.8
X5.375Y-4.9
X5.55Y-4.6
X5.55Y-4.7
X5.55Y-4.8
X5.55Y-4.9
T2
X2.648Y-4.3732
X2.648Y-4.6492
X2.648Y-4.7732
X2.648Y-5.0492
X2.648Y-5.1732
X2.648Y-5.4492
X2.648Y-5.5732
X2.648Y-5.8492
T3
X5.475Y-5.175
X5.475Y-5.375
X5.475Y-5.575
X5.475Y-5.775
T0
M30
